<svg width="880" height="800" viewBox="0 0 880 800" fill="none" xmlns="http://www.w3.org/2000/svg">
<rect x="1" y="1" width="878" height="798" rx="15" stroke="#CDCDCD" stroke-width="2"/>
<rect x="68" y="147" width="358" height="78" rx="15" fill="white" stroke="#CDCDCD" stroke-width="2"/>
<path d="M70.1705 119V92.8182H85.8693V95.6307H73.3409V104.477H84.6932V107.29H73.3409V119H70.1705ZM90.8903 119V99.3636H93.9073V119H90.8903ZM92.4244 96.0909C91.8363 96.0909 91.3292 95.8906 90.9031 95.4901C90.4854 95.0895 90.2766 94.608 90.2766 94.0455C90.2766 93.483 90.4854 93.0014 90.9031 92.6009C91.3292 92.2003 91.8363 92 92.4244 92C93.0124 92 93.5153 92.2003 93.9329 92.6009C94.359 93.0014 94.5721 93.483 94.5721 94.0455C94.5721 94.608 94.359 95.0895 93.9329 95.4901C93.5153 95.8906 93.0124 96.0909 92.4244 96.0909ZM99.4332 119V99.3636H102.348V102.33H102.553C102.911 101.358 103.558 100.57 104.496 99.9645C105.433 99.3594 106.49 99.0568 107.666 99.0568C107.888 99.0568 108.165 99.0611 108.497 99.0696C108.83 99.0781 109.081 99.0909 109.251 99.108V102.176C109.149 102.151 108.915 102.112 108.548 102.061C108.19 102.001 107.811 101.972 107.411 101.972C106.456 101.972 105.604 102.172 104.854 102.572C104.112 102.964 103.524 103.51 103.089 104.209C102.663 104.899 102.45 105.687 102.45 106.574V119H99.4332ZM126.737 103.761L124.027 104.528C123.856 104.077 123.605 103.638 123.272 103.212C122.949 102.777 122.505 102.419 121.943 102.138C121.38 101.857 120.66 101.716 119.782 101.716C118.581 101.716 117.579 101.993 116.778 102.547C115.985 103.092 115.589 103.787 115.589 104.631C115.589 105.381 115.862 105.973 116.407 106.408C116.953 106.842 117.805 107.205 118.964 107.494L121.879 108.21C123.635 108.636 124.943 109.288 125.804 110.166C126.664 111.036 127.095 112.156 127.095 113.528C127.095 114.653 126.771 115.659 126.123 116.545C125.484 117.432 124.589 118.131 123.439 118.642C122.288 119.153 120.95 119.409 119.424 119.409C117.422 119.409 115.764 118.974 114.451 118.105C113.139 117.236 112.308 115.966 111.958 114.295L114.822 113.58C115.095 114.636 115.61 115.429 116.369 115.957C117.136 116.486 118.137 116.75 119.373 116.75C120.779 116.75 121.896 116.452 122.723 115.855C123.558 115.25 123.975 114.526 123.975 113.682C123.975 113 123.737 112.429 123.26 111.969C122.782 111.5 122.049 111.151 121.061 110.92L117.788 110.153C115.99 109.727 114.669 109.067 113.825 108.172C112.99 107.268 112.572 106.139 112.572 104.784C112.572 103.676 112.883 102.696 113.505 101.844C114.136 100.991 114.993 100.322 116.075 99.8366C117.166 99.3509 118.402 99.108 119.782 99.108C121.725 99.108 123.251 99.5341 124.359 100.386C125.475 101.239 126.268 102.364 126.737 103.761ZM140.176 99.3636V101.92H130V99.3636H140.176ZM132.966 94.6591H135.983V113.375C135.983 114.227 136.107 114.866 136.354 115.293C136.609 115.71 136.933 115.991 137.325 116.136C137.726 116.273 138.148 116.341 138.591 116.341C138.923 116.341 139.196 116.324 139.409 116.29C139.622 116.247 139.793 116.213 139.92 116.188L140.534 118.898C140.33 118.974 140.044 119.051 139.678 119.128C139.311 119.213 138.847 119.256 138.284 119.256C137.432 119.256 136.597 119.072 135.778 118.706C134.969 118.339 134.295 117.781 133.759 117.031C133.23 116.281 132.966 115.335 132.966 114.193V94.6591ZM176.01 92.8182V119H172.942L158.675 98.4432H158.419V119H155.249V92.8182H158.317L172.635 113.426H172.891V92.8182H176.01ZM187.723 119.46C186.479 119.46 185.35 119.226 184.336 118.757C183.321 118.28 182.516 117.594 181.919 116.699C181.323 115.795 181.025 114.705 181.025 113.426C181.025 112.301 181.246 111.389 181.689 110.69C182.132 109.983 182.725 109.429 183.466 109.028C184.208 108.628 185.026 108.33 185.921 108.134C186.824 107.929 187.732 107.767 188.644 107.648C189.837 107.494 190.804 107.379 191.546 107.303C192.296 107.217 192.841 107.077 193.182 106.881C193.532 106.685 193.706 106.344 193.706 105.858V105.756C193.706 104.494 193.361 103.514 192.671 102.815C191.989 102.116 190.953 101.767 189.564 101.767C188.124 101.767 186.995 102.082 186.176 102.713C185.358 103.344 184.783 104.017 184.451 104.733L181.587 103.71C182.098 102.517 182.78 101.588 183.632 100.923C184.493 100.25 185.431 99.7812 186.445 99.517C187.468 99.2443 188.473 99.108 189.462 99.108C190.093 99.108 190.817 99.1847 191.635 99.3381C192.462 99.483 193.259 99.7855 194.026 100.246C194.801 100.706 195.445 101.401 195.956 102.33C196.468 103.259 196.723 104.503 196.723 106.062V119H193.706V116.341H193.553C193.348 116.767 193.007 117.223 192.53 117.709C192.053 118.195 191.418 118.608 190.625 118.949C189.833 119.29 188.865 119.46 187.723 119.46ZM188.184 116.75C189.377 116.75 190.382 116.516 191.201 116.047C192.027 115.578 192.65 114.973 193.067 114.232C193.493 113.49 193.706 112.71 193.706 111.892V109.131C193.578 109.284 193.297 109.425 192.863 109.553C192.436 109.672 191.942 109.778 191.38 109.872C190.826 109.957 190.284 110.034 189.756 110.102C189.236 110.162 188.814 110.213 188.49 110.256C187.706 110.358 186.973 110.524 186.292 110.754C185.618 110.976 185.073 111.312 184.655 111.764C184.246 112.207 184.042 112.812 184.042 113.58C184.042 114.628 184.429 115.42 185.205 115.957C185.989 116.486 186.982 116.75 188.184 116.75ZM202.23 119V99.3636H205.145V102.432H205.401C205.81 101.384 206.47 100.57 207.382 99.9901C208.294 99.402 209.389 99.108 210.668 99.108C211.963 99.108 213.041 99.402 213.902 99.9901C214.771 100.57 215.449 101.384 215.935 102.432H216.139C216.642 101.418 217.396 100.612 218.402 100.016C219.408 99.4105 220.614 99.108 222.02 99.108C223.776 99.108 225.212 99.6577 226.328 100.757C227.445 101.848 228.003 103.548 228.003 105.858V119H224.986V105.858C224.986 104.409 224.589 103.374 223.797 102.751C223.004 102.129 222.071 101.818 220.997 101.818C219.616 101.818 218.547 102.236 217.788 103.071C217.03 103.898 216.651 104.946 216.651 106.216V119H213.582V105.551C213.582 104.435 213.22 103.536 212.496 102.854C211.771 102.163 210.838 101.818 209.696 101.818C208.912 101.818 208.179 102.027 207.497 102.445C206.824 102.862 206.278 103.442 205.861 104.183C205.452 104.916 205.247 105.764 205.247 106.727V119H202.23ZM241.752 119.409C239.86 119.409 238.228 118.991 236.856 118.156C235.492 117.312 234.44 116.136 233.698 114.628C232.965 113.111 232.599 111.347 232.599 109.335C232.599 107.324 232.965 105.551 233.698 104.017C234.44 102.474 235.471 101.273 236.792 100.412C238.121 99.5426 239.673 99.108 241.445 99.108C242.468 99.108 243.478 99.2784 244.475 99.6193C245.472 99.9602 246.38 100.514 247.198 101.281C248.016 102.04 248.668 103.045 249.154 104.298C249.64 105.551 249.883 107.094 249.883 108.926V110.205H234.746V107.597H246.815C246.815 106.489 246.593 105.5 246.15 104.631C245.715 103.761 245.093 103.075 244.283 102.572C243.482 102.07 242.536 101.818 241.445 101.818C240.244 101.818 239.204 102.116 238.326 102.713C237.457 103.301 236.788 104.068 236.319 105.014C235.85 105.96 235.616 106.974 235.616 108.057V109.795C235.616 111.278 235.871 112.536 236.383 113.567C236.903 114.589 237.623 115.369 238.543 115.906C239.464 116.435 240.533 116.699 241.752 116.699C242.545 116.699 243.261 116.588 243.9 116.366C244.548 116.136 245.106 115.795 245.575 115.344C246.043 114.884 246.406 114.312 246.661 113.631L249.576 114.449C249.269 115.438 248.754 116.307 248.029 117.057C247.305 117.798 246.41 118.378 245.344 118.795C244.279 119.205 243.082 119.409 241.752 119.409Z" fill="#606060"/>
<rect x="456" y="147" width="358" height="78" rx="15" fill="white" stroke="#CDCDCD" stroke-width="2"/>
<path d="M458.17 119V92.8182H461.341V116.188H473.511V119H458.17ZM483.79 119.46C482.545 119.46 481.416 119.226 480.402 118.757C479.388 118.28 478.582 117.594 477.986 116.699C477.389 115.795 477.091 114.705 477.091 113.426C477.091 112.301 477.313 111.389 477.756 110.69C478.199 109.983 478.791 109.429 479.533 109.028C480.274 108.628 481.092 108.33 481.987 108.134C482.891 107.929 483.798 107.767 484.71 107.648C485.903 107.494 486.871 107.379 487.612 107.303C488.362 107.217 488.908 107.077 489.249 106.881C489.598 106.685 489.773 106.344 489.773 105.858V105.756C489.773 104.494 489.428 103.514 488.737 102.815C488.055 102.116 487.02 101.767 485.631 101.767C484.19 101.767 483.061 102.082 482.243 102.713C481.425 103.344 480.849 104.017 480.517 104.733L477.653 103.71C478.165 102.517 478.847 101.588 479.699 100.923C480.56 100.25 481.497 99.7812 482.511 99.517C483.534 99.2443 484.54 99.108 485.528 99.108C486.159 99.108 486.884 99.1847 487.702 99.3381C488.528 99.483 489.325 99.7855 490.092 100.246C490.868 100.706 491.511 101.401 492.023 102.33C492.534 103.259 492.79 104.503 492.79 106.062V119H489.773V116.341H489.619C489.415 116.767 489.074 117.223 488.597 117.709C488.119 118.195 487.484 118.608 486.692 118.949C485.899 119.29 484.932 119.46 483.79 119.46ZM484.25 116.75C485.443 116.75 486.449 116.516 487.267 116.047C488.094 115.578 488.716 114.973 489.134 114.232C489.56 113.49 489.773 112.71 489.773 111.892V109.131C489.645 109.284 489.364 109.425 488.929 109.553C488.503 109.672 488.009 109.778 487.446 109.872C486.892 109.957 486.351 110.034 485.822 110.102C485.303 110.162 484.881 110.213 484.557 110.256C483.773 110.358 483.04 110.524 482.358 110.754C481.685 110.976 481.139 111.312 480.722 111.764C480.313 112.207 480.108 112.812 480.108 113.58C480.108 114.628 480.496 115.42 481.271 115.957C482.055 116.486 483.048 116.75 484.25 116.75ZM512.206 103.761L509.495 104.528C509.325 104.077 509.074 103.638 508.741 103.212C508.417 102.777 507.974 102.419 507.412 102.138C506.849 101.857 506.129 101.716 505.251 101.716C504.049 101.716 503.048 101.993 502.247 102.547C501.454 103.092 501.058 103.787 501.058 104.631C501.058 105.381 501.331 105.973 501.876 106.408C502.422 106.842 503.274 107.205 504.433 107.494L507.348 108.21C509.103 108.636 510.412 109.288 511.272 110.166C512.133 111.036 512.564 112.156 512.564 113.528C512.564 114.653 512.24 115.659 511.592 116.545C510.953 117.432 510.058 118.131 508.907 118.642C507.757 119.153 506.419 119.409 504.893 119.409C502.89 119.409 501.233 118.974 499.92 118.105C498.608 117.236 497.777 115.966 497.427 114.295L500.291 113.58C500.564 114.636 501.079 115.429 501.838 115.957C502.605 116.486 503.606 116.75 504.842 116.75C506.248 116.75 507.365 116.452 508.191 115.855C509.027 115.25 509.444 114.526 509.444 113.682C509.444 113 509.206 112.429 508.728 111.969C508.251 111.5 507.518 111.151 506.529 110.92L503.257 110.153C501.458 109.727 500.137 109.067 499.294 108.172C498.458 107.268 498.041 106.139 498.041 104.784C498.041 103.676 498.352 102.696 498.974 101.844C499.605 100.991 500.461 100.322 501.544 99.8366C502.635 99.3509 503.87 99.108 505.251 99.108C507.194 99.108 508.72 99.5341 509.828 100.386C510.944 101.239 511.737 102.364 512.206 103.761ZM525.645 99.3636V101.92H515.469V99.3636H525.645ZM518.435 94.6591H521.452V113.375C521.452 114.227 521.575 114.866 521.822 115.293C522.078 115.71 522.402 115.991 522.794 116.136C523.195 116.273 523.616 116.341 524.06 116.341C524.392 116.341 524.665 116.324 524.878 116.29C525.091 116.247 525.261 116.213 525.389 116.188L526.003 118.898C525.798 118.974 525.513 119.051 525.146 119.128C524.78 119.213 524.315 119.256 523.753 119.256C522.901 119.256 522.065 119.072 521.247 118.706C520.438 118.339 519.764 117.781 519.227 117.031C518.699 116.281 518.435 115.335 518.435 114.193V94.6591ZM561.479 92.8182V119H558.411L544.143 98.4432H543.888V119H540.717V92.8182H543.786L558.104 113.426H558.359V92.8182H561.479ZM573.192 119.46C571.948 119.46 570.819 119.226 569.804 118.757C568.79 118.28 567.985 117.594 567.388 116.699C566.792 115.795 566.493 114.705 566.493 113.426C566.493 112.301 566.715 111.389 567.158 110.69C567.601 109.983 568.194 109.429 568.935 109.028C569.676 108.628 570.495 108.33 571.39 108.134C572.293 107.929 573.201 107.767 574.113 107.648C575.306 107.494 576.273 107.379 577.015 107.303C577.765 107.217 578.31 107.077 578.651 106.881C579 106.685 579.175 106.344 579.175 105.858V105.756C579.175 104.494 578.83 103.514 578.14 102.815C577.458 102.116 576.422 101.767 575.033 101.767C573.593 101.767 572.463 102.082 571.645 102.713C570.827 103.344 570.252 104.017 569.919 104.733L567.056 103.71C567.567 102.517 568.249 101.588 569.101 100.923C569.962 100.25 570.9 99.7812 571.914 99.517C572.936 99.2443 573.942 99.108 574.931 99.108C575.561 99.108 576.286 99.1847 577.104 99.3381C577.931 99.483 578.728 99.7855 579.495 100.246C580.27 100.706 580.914 101.401 581.425 102.33C581.936 103.259 582.192 104.503 582.192 106.062V119H579.175V116.341H579.022C578.817 116.767 578.476 117.223 577.999 117.709C577.522 118.195 576.887 118.608 576.094 118.949C575.301 119.29 574.334 119.46 573.192 119.46ZM573.652 116.75C574.846 116.75 575.851 116.516 576.669 116.047C577.496 115.578 578.118 114.973 578.536 114.232C578.962 113.49 579.175 112.71 579.175 111.892V109.131C579.047 109.284 578.766 109.425 578.331 109.553C577.905 109.672 577.411 109.778 576.848 109.872C576.294 109.957 575.753 110.034 575.225 110.102C574.705 110.162 574.283 110.213 573.959 110.256C573.175 110.358 572.442 110.524 571.76 110.754C571.087 110.976 570.542 111.312 570.124 111.764C569.715 112.207 569.51 112.812 569.51 113.58C569.51 114.628 569.898 115.42 570.674 115.957C571.458 116.486 572.451 116.75 573.652 116.75ZM587.699 119V99.3636H590.614V102.432H590.869C591.278 101.384 591.939 100.57 592.851 99.9901C593.763 99.402 594.858 99.108 596.136 99.108C597.432 99.108 598.51 99.402 599.371 99.9901C600.24 100.57 600.918 101.384 601.403 102.432H601.608C602.111 101.418 602.865 100.612 603.871 100.016C604.876 99.4105 606.082 99.108 607.489 99.108C609.244 99.108 610.68 99.6577 611.797 100.757C612.913 101.848 613.472 103.548 613.472 105.858V119H610.455V105.858C610.455 104.409 610.058 103.374 609.266 102.751C608.473 102.129 607.54 101.818 606.466 101.818C605.085 101.818 604.016 102.236 603.257 103.071C602.499 103.898 602.119 104.946 602.119 106.216V119H599.051V105.551C599.051 104.435 598.689 103.536 597.964 102.854C597.24 102.163 596.307 101.818 595.165 101.818C594.381 101.818 593.648 102.027 592.966 102.445C592.293 102.862 591.747 103.442 591.33 104.183C590.92 104.916 590.716 105.764 590.716 106.727V119H587.699ZM627.221 119.409C625.329 119.409 623.697 118.991 622.325 118.156C620.961 117.312 619.908 116.136 619.167 114.628C618.434 113.111 618.067 111.347 618.067 109.335C618.067 107.324 618.434 105.551 619.167 104.017C619.908 102.474 620.94 101.273 622.261 100.412C623.59 99.5426 625.141 99.108 626.914 99.108C627.937 99.108 628.947 99.2784 629.944 99.6193C630.941 99.9602 631.849 100.514 632.667 101.281C633.485 102.04 634.137 103.045 634.623 104.298C635.109 105.551 635.352 107.094 635.352 108.926V110.205H620.215V107.597H632.283C632.283 106.489 632.062 105.5 631.619 104.631C631.184 103.761 630.562 103.075 629.752 102.572C628.951 102.07 628.005 101.818 626.914 101.818C625.712 101.818 624.673 102.116 623.795 102.713C622.925 103.301 622.256 104.068 621.788 105.014C621.319 105.96 621.085 106.974 621.085 108.057V109.795C621.085 111.278 621.34 112.536 621.852 113.567C622.371 114.589 623.092 115.369 624.012 115.906C624.933 116.435 626.002 116.699 627.221 116.699C628.013 116.699 628.729 116.588 629.369 116.366C630.016 116.136 630.575 115.795 631.043 115.344C631.512 114.884 631.874 114.312 632.13 113.631L635.045 114.449C634.738 115.438 634.222 116.307 633.498 117.057C632.773 117.798 631.879 118.378 630.813 118.795C629.748 119.205 628.55 119.409 627.221 119.409Z" fill="#606060"/>
<rect x="68" y="329" width="754" height="78" rx="15" fill="white" stroke="#CDCDCD" stroke-width="2"/>
<path d="M70.1705 301V274.818H85.9716V277.631H73.3409V286.477H85.1534V289.29H73.3409V298.188H86.1761V301H70.1705ZM91.277 301V281.364H94.1918V284.432H94.4474C94.8565 283.384 95.517 282.57 96.429 281.99C97.3409 281.402 98.4361 281.108 99.7145 281.108C101.01 281.108 102.088 281.402 102.949 281.99C103.818 282.57 104.496 283.384 104.982 284.432H105.186C105.689 283.418 106.443 282.612 107.449 282.016C108.455 281.411 109.661 281.108 111.067 281.108C112.822 281.108 114.259 281.658 115.375 282.757C116.491 283.848 117.05 285.548 117.05 287.858V301H114.033V287.858C114.033 286.409 113.636 285.374 112.844 284.751C112.051 284.129 111.118 283.818 110.044 283.818C108.663 283.818 107.594 284.236 106.835 285.071C106.077 285.898 105.697 286.946 105.697 288.216V301H102.629V287.551C102.629 286.435 102.267 285.536 101.543 284.854C100.818 284.163 99.8849 283.818 98.7429 283.818C97.9588 283.818 97.2259 284.027 96.544 284.445C95.8707 284.862 95.3253 285.442 94.9077 286.183C94.4986 286.916 94.294 287.764 94.294 288.727V301H91.277ZM128.344 301.46C127.1 301.46 125.971 301.226 124.957 300.757C123.942 300.28 123.137 299.594 122.54 298.699C121.944 297.795 121.646 296.705 121.646 295.426C121.646 294.301 121.867 293.389 122.31 292.69C122.754 291.983 123.346 291.429 124.087 291.028C124.829 290.628 125.647 290.33 126.542 290.134C127.445 289.929 128.353 289.767 129.265 289.648C130.458 289.494 131.425 289.379 132.167 289.303C132.917 289.217 133.462 289.077 133.803 288.881C134.153 288.685 134.327 288.344 134.327 287.858V287.756C134.327 286.494 133.982 285.514 133.292 284.815C132.61 284.116 131.575 283.767 130.185 283.767C128.745 283.767 127.616 284.082 126.798 284.713C125.979 285.344 125.404 286.017 125.072 286.733L122.208 285.71C122.719 284.517 123.401 283.588 124.254 282.923C125.114 282.25 126.052 281.781 127.066 281.517C128.089 281.244 129.094 281.108 130.083 281.108C130.714 281.108 131.438 281.185 132.256 281.338C133.083 281.483 133.88 281.786 134.647 282.246C135.423 282.706 136.066 283.401 136.577 284.33C137.089 285.259 137.344 286.503 137.344 288.062V301H134.327V298.341H134.174C133.969 298.767 133.629 299.223 133.151 299.709C132.674 300.195 132.039 300.608 131.246 300.949C130.454 301.29 129.487 301.46 128.344 301.46ZM128.805 298.75C129.998 298.75 131.004 298.516 131.822 298.047C132.648 297.578 133.271 296.973 133.688 296.232C134.114 295.49 134.327 294.71 134.327 293.892V291.131C134.2 291.284 133.918 291.425 133.484 291.553C133.058 291.672 132.563 291.778 132.001 291.872C131.447 291.957 130.906 292.034 130.377 292.102C129.857 292.162 129.435 292.213 129.112 292.256C128.327 292.358 127.594 292.524 126.913 292.754C126.239 292.976 125.694 293.312 125.276 293.764C124.867 294.207 124.663 294.812 124.663 295.58C124.663 296.628 125.05 297.42 125.826 297.957C126.61 298.486 127.603 298.75 128.805 298.75ZM142.851 301V281.364H145.868V301H142.851ZM144.385 278.091C143.797 278.091 143.29 277.891 142.864 277.49C142.446 277.089 142.238 276.608 142.238 276.045C142.238 275.483 142.446 275.001 142.864 274.601C143.29 274.2 143.797 274 144.385 274C144.973 274 145.476 274.2 145.894 274.601C146.32 275.001 146.533 275.483 146.533 276.045C146.533 276.608 146.32 277.089 145.894 277.49C145.476 277.891 144.973 278.091 144.385 278.091ZM154.411 274.818V301H151.394V274.818H154.411Z" fill="#606060"/>
<rect x="68" y="511" width="754" height="78" rx="15" fill="white" stroke="#CDCDCD" stroke-width="2"/>
<path d="M70.1705 483V456.818H79.017C81.071 456.818 82.75 457.189 84.054 457.93C85.3665 458.663 86.3381 459.656 86.9688 460.909C87.5994 462.162 87.9148 463.56 87.9148 465.102C87.9148 466.645 87.5994 468.047 86.9688 469.308C86.3466 470.57 85.3835 471.575 84.0795 472.325C82.7756 473.067 81.1051 473.438 79.0682 473.438H72.7273V470.625H78.9659C80.3722 470.625 81.5014 470.382 82.3537 469.896C83.206 469.411 83.8239 468.754 84.2074 467.928C84.5994 467.092 84.7955 466.151 84.7955 465.102C84.7955 464.054 84.5994 463.116 84.2074 462.29C83.8239 461.463 83.2017 460.815 82.3409 460.347C81.4801 459.869 80.3381 459.631 78.9148 459.631H73.3409V483H70.1705ZM98.3913 483.46C97.147 483.46 96.0178 483.226 95.0036 482.757C93.9893 482.28 93.1839 481.594 92.5874 480.699C91.9908 479.795 91.6925 478.705 91.6925 477.426C91.6925 476.301 91.9141 475.389 92.3572 474.69C92.8004 473.983 93.3928 473.429 94.1342 473.028C94.8757 472.628 95.6939 472.33 96.5888 472.134C97.4922 471.929 98.3999 471.767 99.3118 471.648C100.505 471.494 101.472 471.379 102.214 471.303C102.964 471.217 103.509 471.077 103.85 470.881C104.2 470.685 104.374 470.344 104.374 469.858V469.756C104.374 468.494 104.029 467.514 103.339 466.815C102.657 466.116 101.621 465.767 100.232 465.767C98.7919 465.767 97.6626 466.082 96.8445 466.713C96.0263 467.344 95.451 468.017 95.1186 468.733L92.255 467.71C92.7663 466.517 93.4482 465.588 94.3004 464.923C95.1612 464.25 96.0987 463.781 97.1129 463.517C98.1357 463.244 99.1413 463.108 100.13 463.108C100.761 463.108 101.485 463.185 102.303 463.338C103.13 463.483 103.927 463.786 104.694 464.246C105.469 464.706 106.113 465.401 106.624 466.33C107.136 467.259 107.391 468.503 107.391 470.062V483H104.374V480.341H104.221C104.016 480.767 103.675 481.223 103.198 481.709C102.721 482.195 102.086 482.608 101.293 482.949C100.501 483.29 99.5334 483.46 98.3913 483.46ZM98.8516 480.75C100.045 480.75 101.05 480.516 101.869 480.047C102.695 479.578 103.317 478.973 103.735 478.232C104.161 477.49 104.374 476.71 104.374 475.892V473.131C104.246 473.284 103.965 473.425 103.531 473.553C103.104 473.672 102.61 473.778 102.048 473.872C101.494 473.957 100.952 474.034 100.424 474.102C99.9041 474.162 99.4822 474.213 99.1584 474.256C98.3743 474.358 97.6413 474.524 96.9595 474.754C96.2862 474.976 95.7408 475.312 95.3232 475.764C94.9141 476.207 94.7095 476.812 94.7095 477.58C94.7095 478.628 95.0973 479.42 95.8729 479.957C96.657 480.486 97.6499 480.75 98.8516 480.75ZM126.807 467.761L124.097 468.528C123.926 468.077 123.675 467.638 123.343 467.212C123.019 466.777 122.576 466.419 122.013 466.138C121.451 465.857 120.73 465.716 119.853 465.716C118.651 465.716 117.65 465.993 116.848 466.547C116.056 467.092 115.659 467.787 115.659 468.631C115.659 469.381 115.932 469.973 116.478 470.408C117.023 470.842 117.875 471.205 119.034 471.494L121.949 472.21C123.705 472.636 125.013 473.288 125.874 474.166C126.735 475.036 127.165 476.156 127.165 477.528C127.165 478.653 126.841 479.659 126.194 480.545C125.554 481.432 124.659 482.131 123.509 482.642C122.358 483.153 121.02 483.409 119.495 483.409C117.492 483.409 115.834 482.974 114.522 482.105C113.209 481.236 112.378 479.966 112.029 478.295L114.892 477.58C115.165 478.636 115.681 479.429 116.439 479.957C117.206 480.486 118.208 480.75 119.444 480.75C120.85 480.75 121.966 480.452 122.793 479.855C123.628 479.25 124.046 478.526 124.046 477.682C124.046 477 123.807 476.429 123.33 475.969C122.853 475.5 122.12 475.151 121.131 474.92L117.858 474.153C116.06 473.727 114.739 473.067 113.895 472.172C113.06 471.268 112.642 470.139 112.642 468.784C112.642 467.676 112.953 466.696 113.576 465.844C114.206 464.991 115.063 464.322 116.145 463.837C117.236 463.351 118.472 463.108 119.853 463.108C121.796 463.108 123.321 463.534 124.429 464.386C125.546 465.239 126.338 466.364 126.807 467.761ZM145.616 467.761L142.906 468.528C142.735 468.077 142.484 467.638 142.151 467.212C141.827 466.777 141.384 466.419 140.822 466.138C140.259 465.857 139.539 465.716 138.661 465.716C137.46 465.716 136.458 465.993 135.657 466.547C134.864 467.092 134.468 467.787 134.468 468.631C134.468 469.381 134.741 469.973 135.286 470.408C135.832 470.842 136.684 471.205 137.843 471.494L140.758 472.21C142.513 472.636 143.822 473.288 144.683 474.166C145.543 475.036 145.974 476.156 145.974 477.528C145.974 478.653 145.65 479.659 145.002 480.545C144.363 481.432 143.468 482.131 142.317 482.642C141.167 483.153 139.829 483.409 138.303 483.409C136.3 483.409 134.643 482.974 133.33 482.105C132.018 481.236 131.187 479.966 130.837 478.295L133.701 477.58C133.974 478.636 134.489 479.429 135.248 479.957C136.015 480.486 137.016 480.75 138.252 480.75C139.658 480.75 140.775 480.452 141.602 479.855C142.437 479.25 142.854 478.526 142.854 477.682C142.854 477 142.616 476.429 142.138 475.969C141.661 475.5 140.928 475.151 139.94 474.92L136.667 474.153C134.869 473.727 133.548 473.067 132.704 472.172C131.869 471.268 131.451 470.139 131.451 468.784C131.451 467.676 131.762 466.696 132.384 465.844C133.015 464.991 133.871 464.322 134.954 463.837C136.045 463.351 137.281 463.108 138.661 463.108C140.604 463.108 142.13 463.534 143.238 464.386C144.354 465.239 145.147 466.364 145.616 467.761ZM154.964 483L148.981 463.364H152.152L156.396 478.398H156.6L160.794 463.364H164.015L168.157 478.347H168.362L172.606 463.364H175.777L169.794 483H166.828L162.532 467.915H162.225L157.93 483H154.964ZM187.075 483.409C185.302 483.409 183.746 482.987 182.408 482.143C181.079 481.3 180.039 480.119 179.289 478.602C178.548 477.085 178.177 475.312 178.177 473.284C178.177 471.239 178.548 469.453 179.289 467.928C180.039 466.402 181.079 465.217 182.408 464.374C183.746 463.53 185.302 463.108 187.075 463.108C188.847 463.108 190.398 463.53 191.728 464.374C193.066 465.217 194.106 466.402 194.847 467.928C195.597 469.453 195.972 471.239 195.972 473.284C195.972 475.312 195.597 477.085 194.847 478.602C194.106 480.119 193.066 481.3 191.728 482.143C190.398 482.987 188.847 483.409 187.075 483.409ZM187.075 480.699C188.421 480.699 189.529 480.354 190.398 479.663C191.268 478.973 191.911 478.065 192.329 476.94C192.746 475.815 192.955 474.597 192.955 473.284C192.955 471.972 192.746 470.749 192.329 469.615C191.911 468.482 191.268 467.565 190.398 466.866C189.529 466.168 188.421 465.818 187.075 465.818C185.728 465.818 184.62 466.168 183.751 466.866C182.881 467.565 182.238 468.482 181.82 469.615C181.403 470.749 181.194 471.972 181.194 473.284C181.194 474.597 181.403 475.815 181.82 476.94C182.238 478.065 182.881 478.973 183.751 479.663C184.62 480.354 185.728 480.699 187.075 480.699ZM200.578 483V463.364H203.493V466.33H203.697C204.055 465.358 204.703 464.57 205.64 463.964C206.578 463.359 207.635 463.057 208.811 463.057C209.032 463.057 209.309 463.061 209.642 463.07C209.974 463.078 210.225 463.091 210.396 463.108V466.176C210.294 466.151 210.059 466.112 209.693 466.061C209.335 466.001 208.956 465.972 208.555 465.972C207.6 465.972 206.748 466.172 205.998 466.572C205.257 466.964 204.669 467.51 204.234 468.209C203.808 468.899 203.595 469.687 203.595 470.574V483H200.578ZM220.789 483.409C219.153 483.409 217.708 482.996 216.456 482.169C215.203 481.334 214.223 480.158 213.515 478.641C212.808 477.115 212.454 475.312 212.454 473.233C212.454 471.17 212.808 469.381 213.515 467.864C214.223 466.347 215.207 465.175 216.468 464.348C217.73 463.521 219.187 463.108 220.841 463.108C222.119 463.108 223.129 463.321 223.87 463.747C224.62 464.165 225.191 464.642 225.583 465.179C225.984 465.707 226.295 466.142 226.517 466.483H226.772V456.818H229.789V483H226.875V479.983H226.517C226.295 480.341 225.98 480.793 225.571 481.338C225.162 481.875 224.578 482.357 223.819 482.783C223.061 483.2 222.051 483.409 220.789 483.409ZM221.199 480.699C222.409 480.699 223.431 480.384 224.267 479.753C225.102 479.114 225.737 478.232 226.172 477.107C226.606 475.973 226.824 474.665 226.824 473.182C226.824 471.716 226.61 470.433 226.184 469.334C225.758 468.226 225.127 467.365 224.292 466.751C223.457 466.129 222.426 465.818 221.199 465.818C219.92 465.818 218.855 466.146 218.002 466.803C217.159 467.45 216.524 468.332 216.098 469.449C215.68 470.557 215.471 471.801 215.471 473.182C215.471 474.58 215.684 475.849 216.11 476.991C216.545 478.125 217.184 479.028 218.028 479.702C218.88 480.366 219.937 480.699 221.199 480.699Z" fill="#606060"/>
<rect x="67" y="630" width="756" height="80" rx="40" fill="black"/>
<path d="M312.899 663H309.728C309.541 662.088 309.213 661.287 308.744 660.597C308.284 659.906 307.721 659.327 307.056 658.858C306.4 658.381 305.672 658.023 304.87 657.784C304.069 657.545 303.234 657.426 302.365 657.426C300.779 657.426 299.343 657.827 298.056 658.628C296.778 659.429 295.76 660.609 295.001 662.169C294.251 663.729 293.876 665.642 293.876 667.909C293.876 670.176 294.251 672.089 295.001 673.649C295.76 675.209 296.778 676.389 298.056 677.19C299.343 677.991 300.779 678.392 302.365 678.392C303.234 678.392 304.069 678.273 304.87 678.034C305.672 677.795 306.4 677.442 307.056 676.973C307.721 676.496 308.284 675.912 308.744 675.222C309.213 674.523 309.541 673.722 309.728 672.818H312.899C312.66 674.156 312.225 675.354 311.595 676.411C310.964 677.467 310.18 678.366 309.243 679.108C308.305 679.841 307.252 680.399 306.085 680.783C304.926 681.166 303.686 681.358 302.365 681.358C300.132 681.358 298.146 680.812 296.407 679.722C294.669 678.631 293.301 677.08 292.304 675.068C291.306 673.057 290.808 670.67 290.808 667.909C290.808 665.148 291.306 662.761 292.304 660.75C293.301 658.739 294.669 657.188 296.407 656.097C298.146 655.006 300.132 654.46 302.365 654.46C303.686 654.46 304.926 654.652 306.085 655.036C307.252 655.419 308.305 655.982 309.243 656.723C310.18 657.456 310.964 658.351 311.595 659.408C312.225 660.456 312.66 661.653 312.899 663ZM317.613 681V661.364H320.528V664.33H320.732C321.09 663.358 321.738 662.57 322.675 661.964C323.613 661.359 324.67 661.057 325.846 661.057C326.067 661.057 326.344 661.061 326.677 661.07C327.009 661.078 327.261 661.091 327.431 661.108V664.176C327.329 664.151 327.094 664.112 326.728 664.061C326.37 664.001 325.991 663.972 325.59 663.972C324.636 663.972 323.783 664.172 323.033 664.572C322.292 664.964 321.704 665.51 321.269 666.209C320.843 666.899 320.63 667.687 320.63 668.574V681H317.613ZM338.643 681.409C336.751 681.409 335.119 680.991 333.746 680.156C332.383 679.312 331.33 678.136 330.589 676.628C329.856 675.111 329.489 673.347 329.489 671.335C329.489 669.324 329.856 667.551 330.589 666.017C331.33 664.474 332.362 663.273 333.683 662.412C335.012 661.543 336.563 661.108 338.336 661.108C339.359 661.108 340.369 661.278 341.366 661.619C342.363 661.96 343.271 662.514 344.089 663.281C344.907 664.04 345.559 665.045 346.045 666.298C346.531 667.551 346.773 669.094 346.773 670.926V672.205H331.637V669.597H343.705C343.705 668.489 343.484 667.5 343.04 666.631C342.606 665.761 341.984 665.075 341.174 664.572C340.373 664.07 339.427 663.818 338.336 663.818C337.134 663.818 336.094 664.116 335.217 664.713C334.347 665.301 333.678 666.068 333.21 667.014C332.741 667.96 332.506 668.974 332.506 670.057V671.795C332.506 673.278 332.762 674.536 333.273 675.567C333.793 676.589 334.513 677.369 335.434 677.906C336.354 678.435 337.424 678.699 338.643 678.699C339.435 678.699 340.151 678.588 340.79 678.366C341.438 678.136 341.996 677.795 342.465 677.344C342.934 676.884 343.296 676.312 343.552 675.631L346.467 676.449C346.16 677.438 345.644 678.307 344.92 679.057C344.195 679.798 343.3 680.378 342.235 680.795C341.17 681.205 339.972 681.409 338.643 681.409ZM357.141 681.46C355.897 681.46 354.768 681.226 353.754 680.757C352.739 680.28 351.934 679.594 351.337 678.699C350.741 677.795 350.442 676.705 350.442 675.426C350.442 674.301 350.664 673.389 351.107 672.69C351.55 671.983 352.143 671.429 352.884 671.028C353.626 670.628 354.444 670.33 355.339 670.134C356.242 669.929 357.15 669.767 358.062 669.648C359.255 669.494 360.222 669.379 360.964 669.303C361.714 669.217 362.259 669.077 362.6 668.881C362.95 668.685 363.124 668.344 363.124 667.858V667.756C363.124 666.494 362.779 665.514 362.089 664.815C361.407 664.116 360.371 663.767 358.982 663.767C357.542 663.767 356.413 664.082 355.594 664.713C354.776 665.344 354.201 666.017 353.869 666.733L351.005 665.71C351.516 664.517 352.198 663.588 353.05 662.923C353.911 662.25 354.849 661.781 355.863 661.517C356.886 661.244 357.891 661.108 358.88 661.108C359.511 661.108 360.235 661.185 361.053 661.338C361.88 661.483 362.677 661.786 363.444 662.246C364.219 662.706 364.863 663.401 365.374 664.33C365.886 665.259 366.141 666.503 366.141 668.062V681H363.124V678.341H362.971C362.766 678.767 362.425 679.223 361.948 679.709C361.471 680.195 360.836 680.608 360.043 680.949C359.251 681.29 358.283 681.46 357.141 681.46ZM357.602 678.75C358.795 678.75 359.8 678.516 360.619 678.047C361.445 677.578 362.067 676.973 362.485 676.232C362.911 675.49 363.124 674.71 363.124 673.892V671.131C362.996 671.284 362.715 671.425 362.281 671.553C361.854 671.672 361.36 671.778 360.798 671.872C360.244 671.957 359.702 672.034 359.174 672.102C358.654 672.162 358.232 672.213 357.908 672.256C357.124 672.358 356.391 672.524 355.71 672.754C355.036 672.976 354.491 673.312 354.073 673.764C353.664 674.207 353.46 674.812 353.46 675.58C353.46 676.628 353.847 677.42 354.623 677.957C355.407 678.486 356.4 678.75 357.602 678.75ZM380.188 661.364V663.92H370.012V661.364H380.188ZM372.978 656.659H375.995V675.375C375.995 676.227 376.118 676.866 376.365 677.293C376.621 677.71 376.945 677.991 377.337 678.136C377.738 678.273 378.159 678.341 378.603 678.341C378.935 678.341 379.208 678.324 379.421 678.29C379.634 678.247 379.804 678.213 379.932 678.188L380.546 680.898C380.341 680.974 380.056 681.051 379.689 681.128C379.323 681.213 378.858 681.256 378.296 681.256C377.444 681.256 376.608 681.072 375.79 680.706C374.98 680.339 374.307 679.781 373.77 679.031C373.242 678.281 372.978 677.335 372.978 676.193V656.659ZM392.748 681.409C390.856 681.409 389.224 680.991 387.852 680.156C386.488 679.312 385.436 678.136 384.694 676.628C383.961 675.111 383.595 673.347 383.595 671.335C383.595 669.324 383.961 667.551 384.694 666.017C385.436 664.474 386.467 663.273 387.788 662.412C389.118 661.543 390.669 661.108 392.441 661.108C393.464 661.108 394.474 661.278 395.471 661.619C396.468 661.96 397.376 662.514 398.194 663.281C399.012 664.04 399.664 665.045 400.15 666.298C400.636 667.551 400.879 669.094 400.879 670.926V672.205H385.743V669.597H397.811C397.811 668.489 397.589 667.5 397.146 666.631C396.711 665.761 396.089 665.075 395.279 664.572C394.478 664.07 393.532 663.818 392.441 663.818C391.24 663.818 390.2 664.116 389.322 664.713C388.453 665.301 387.784 666.068 387.315 667.014C386.846 667.96 386.612 668.974 386.612 670.057V671.795C386.612 673.278 386.868 674.536 387.379 675.567C387.899 676.589 388.619 677.369 389.539 677.906C390.46 678.435 391.529 678.699 392.748 678.699C393.541 678.699 394.257 678.588 394.896 678.366C395.544 678.136 396.102 677.795 396.571 677.344C397.039 676.884 397.402 676.312 397.657 675.631L400.572 676.449C400.265 677.438 399.75 678.307 399.025 679.057C398.301 679.798 397.406 680.378 396.341 680.795C395.275 681.205 394.078 681.409 392.748 681.409ZM421.372 681.46C420.127 681.46 418.998 681.226 417.984 680.757C416.97 680.28 416.164 679.594 415.568 678.699C414.971 677.795 414.673 676.705 414.673 675.426C414.673 674.301 414.895 673.389 415.338 672.69C415.781 671.983 416.373 671.429 417.115 671.028C417.856 670.628 418.674 670.33 419.569 670.134C420.473 669.929 421.38 669.767 422.292 669.648C423.485 669.494 424.453 669.379 425.194 669.303C425.944 669.217 426.49 669.077 426.831 668.881C427.18 668.685 427.355 668.344 427.355 667.858V667.756C427.355 666.494 427.01 665.514 426.319 664.815C425.637 664.116 424.602 663.767 423.213 663.767C421.772 663.767 420.643 664.082 419.825 664.713C419.007 665.344 418.431 666.017 418.099 666.733L415.235 665.71C415.747 664.517 416.429 663.588 417.281 662.923C418.142 662.25 419.079 661.781 420.093 661.517C421.116 661.244 422.122 661.108 423.11 661.108C423.741 661.108 424.466 661.185 425.284 661.338C426.11 661.483 426.907 661.786 427.674 662.246C428.45 662.706 429.093 663.401 429.605 664.33C430.116 665.259 430.372 666.503 430.372 668.062V681H427.355V678.341H427.201C426.997 678.767 426.656 679.223 426.179 679.709C425.701 680.195 425.066 680.608 424.274 680.949C423.481 681.29 422.514 681.46 421.372 681.46ZM421.832 678.75C423.025 678.75 424.031 678.516 424.849 678.047C425.676 677.578 426.298 676.973 426.716 676.232C427.142 675.49 427.355 674.71 427.355 673.892V671.131C427.227 671.284 426.946 671.425 426.511 671.553C426.085 671.672 425.591 671.778 425.028 671.872C424.474 671.957 423.933 672.034 423.404 672.102C422.885 672.162 422.463 672.213 422.139 672.256C421.355 672.358 420.622 672.524 419.94 672.754C419.267 672.976 418.721 673.312 418.304 673.764C417.895 674.207 417.69 674.812 417.69 675.58C417.69 676.628 418.078 677.42 418.853 677.957C419.637 678.486 420.63 678.75 421.832 678.75ZM438.896 669.188V681H435.879V661.364H438.793V664.432H439.049C439.509 663.435 440.208 662.634 441.146 662.028C442.083 661.415 443.293 661.108 444.776 661.108C446.106 661.108 447.269 661.381 448.266 661.926C449.263 662.463 450.039 663.281 450.593 664.381C451.147 665.472 451.424 666.852 451.424 668.523V681H448.407V668.727C448.407 667.185 448.006 665.983 447.205 665.122C446.404 664.253 445.305 663.818 443.907 663.818C442.944 663.818 442.083 664.027 441.325 664.445C440.575 664.862 439.982 665.472 439.548 666.273C439.113 667.074 438.896 668.045 438.896 669.188ZM472.841 681.46C471.596 681.46 470.467 681.226 469.453 680.757C468.439 680.28 467.633 679.594 467.037 678.699C466.44 677.795 466.142 676.705 466.142 675.426C466.142 674.301 466.363 673.389 466.806 672.69C467.25 671.983 467.842 671.429 468.583 671.028C469.325 670.628 470.143 670.33 471.038 670.134C471.941 669.929 472.849 669.767 473.761 669.648C474.954 669.494 475.922 669.379 476.663 669.303C477.413 669.217 477.958 669.077 478.299 668.881C478.649 668.685 478.824 668.344 478.824 667.858V667.756C478.824 666.494 478.478 665.514 477.788 664.815C477.106 664.116 476.071 663.767 474.681 663.767C473.241 663.767 472.112 664.082 471.294 664.713C470.475 665.344 469.9 666.017 469.568 666.733L466.704 665.71C467.216 664.517 467.897 663.588 468.75 662.923C469.61 662.25 470.548 661.781 471.562 661.517C472.585 661.244 473.591 661.108 474.579 661.108C475.21 661.108 475.934 661.185 476.752 661.338C477.579 661.483 478.376 661.786 479.143 662.246C479.919 662.706 480.562 663.401 481.074 664.33C481.585 665.259 481.841 666.503 481.841 668.062V681H478.824V678.341H478.67C478.466 678.767 478.125 679.223 477.647 679.709C477.17 680.195 476.535 680.608 475.743 680.949C474.95 681.29 473.983 681.46 472.841 681.46ZM473.301 678.75C474.494 678.75 475.5 678.516 476.318 678.047C477.145 677.578 477.767 676.973 478.184 676.232C478.61 675.49 478.824 674.71 478.824 673.892V671.131C478.696 671.284 478.414 671.425 477.98 671.553C477.554 671.672 477.059 671.778 476.497 671.872C475.943 671.957 475.402 672.034 474.873 672.102C474.353 672.162 473.931 672.213 473.608 672.256C472.824 672.358 472.091 672.524 471.409 672.754C470.735 672.976 470.19 673.312 469.772 673.764C469.363 674.207 469.159 674.812 469.159 675.58C469.159 676.628 469.547 677.42 470.322 677.957C471.106 678.486 472.099 678.75 473.301 678.75ZM495.325 681.409C493.484 681.409 491.898 680.974 490.569 680.105C489.239 679.236 488.217 678.038 487.501 676.513C486.785 674.987 486.427 673.244 486.427 671.284C486.427 669.29 486.793 667.53 487.526 666.004C488.268 664.47 489.299 663.273 490.62 662.412C491.95 661.543 493.501 661.108 495.273 661.108C496.654 661.108 497.898 661.364 499.006 661.875C500.114 662.386 501.022 663.102 501.729 664.023C502.437 664.943 502.876 666.017 503.046 667.244H500.029C499.799 666.349 499.288 665.557 498.495 664.866C497.711 664.168 496.654 663.818 495.325 663.818C494.148 663.818 493.117 664.125 492.231 664.739C491.353 665.344 490.667 666.2 490.173 667.308C489.687 668.408 489.444 669.699 489.444 671.182C489.444 672.699 489.683 674.02 490.16 675.145C490.646 676.27 491.327 677.143 492.205 677.766C493.092 678.388 494.131 678.699 495.325 678.699C496.109 678.699 496.82 678.562 497.46 678.29C498.099 678.017 498.64 677.625 499.083 677.114C499.526 676.602 499.842 675.989 500.029 675.273H503.046C502.876 676.432 502.454 677.476 501.781 678.405C501.116 679.325 500.234 680.058 499.134 680.604C498.043 681.141 496.773 681.409 495.325 681.409ZM515.434 681.409C513.593 681.409 512.008 680.974 510.678 680.105C509.349 679.236 508.326 678.038 507.61 676.513C506.894 674.987 506.536 673.244 506.536 671.284C506.536 669.29 506.903 667.53 507.636 666.004C508.377 664.47 509.408 663.273 510.729 662.412C512.059 661.543 513.61 661.108 515.383 661.108C516.763 661.108 518.008 661.364 519.116 661.875C520.224 662.386 521.131 663.102 521.839 664.023C522.546 664.943 522.985 666.017 523.156 667.244H520.138C519.908 666.349 519.397 665.557 518.604 664.866C517.82 664.168 516.763 663.818 515.434 663.818C514.258 663.818 513.227 664.125 512.34 664.739C511.462 665.344 510.776 666.2 510.282 667.308C509.796 668.408 509.553 669.699 509.553 671.182C509.553 672.699 509.792 674.02 510.269 675.145C510.755 676.27 511.437 677.143 512.315 677.766C513.201 678.388 514.241 678.699 515.434 678.699C516.218 678.699 516.93 678.562 517.569 678.29C518.208 678.017 518.749 677.625 519.192 677.114C519.636 676.602 519.951 675.989 520.138 675.273H523.156C522.985 676.432 522.563 677.476 521.89 678.405C521.225 679.325 520.343 680.058 519.244 680.604C518.153 681.141 516.883 681.409 515.434 681.409ZM535.543 681.409C533.771 681.409 532.215 680.987 530.877 680.143C529.548 679.3 528.508 678.119 527.758 676.602C527.016 675.085 526.646 673.312 526.646 671.284C526.646 669.239 527.016 667.453 527.758 665.928C528.508 664.402 529.548 663.217 530.877 662.374C532.215 661.53 533.771 661.108 535.543 661.108C537.316 661.108 538.867 661.53 540.197 662.374C541.535 663.217 542.575 664.402 543.316 665.928C544.066 667.453 544.441 669.239 544.441 671.284C544.441 673.312 544.066 675.085 543.316 676.602C542.575 678.119 541.535 679.3 540.197 680.143C538.867 680.987 537.316 681.409 535.543 681.409ZM535.543 678.699C536.89 678.699 537.998 678.354 538.867 677.663C539.737 676.973 540.38 676.065 540.798 674.94C541.215 673.815 541.424 672.597 541.424 671.284C541.424 669.972 541.215 668.749 540.798 667.615C540.38 666.482 539.737 665.565 538.867 664.866C537.998 664.168 536.89 663.818 535.543 663.818C534.197 663.818 533.089 664.168 532.219 664.866C531.35 665.565 530.707 666.482 530.289 667.615C529.871 668.749 529.663 669.972 529.663 671.284C529.663 672.597 529.871 673.815 530.289 674.94C530.707 676.065 531.35 676.973 532.219 677.663C533.089 678.354 534.197 678.699 535.543 678.699ZM561.422 672.972V661.364H564.439V681H561.422V677.676H561.217C560.757 678.673 560.041 679.521 559.069 680.22C558.098 680.911 556.87 681.256 555.387 681.256C554.16 681.256 553.069 680.987 552.115 680.45C551.16 679.905 550.41 679.087 549.865 677.996C549.319 676.896 549.047 675.511 549.047 673.841V661.364H552.064V673.636C552.064 675.068 552.464 676.21 553.265 677.062C554.075 677.915 555.106 678.341 556.359 678.341C557.109 678.341 557.872 678.149 558.647 677.766C559.431 677.382 560.088 676.794 560.616 676.001C561.153 675.209 561.422 674.199 561.422 672.972ZM572.982 669.188V681H569.964V661.364H572.879V664.432H573.135C573.595 663.435 574.294 662.634 575.232 662.028C576.169 661.415 577.379 661.108 578.862 661.108C580.192 661.108 581.355 661.381 582.352 661.926C583.349 662.463 584.125 663.281 584.679 664.381C585.233 665.472 585.51 666.852 585.51 668.523V681H582.493V668.727C582.493 667.185 582.092 665.983 581.291 665.122C580.49 664.253 579.391 663.818 577.993 663.818C577.03 663.818 576.169 664.027 575.411 664.445C574.661 664.862 574.068 665.472 573.634 666.273C573.199 667.074 572.982 668.045 572.982 669.188ZM599.563 661.364V663.92H589.387V661.364H599.563ZM592.353 656.659H595.37V675.375C595.37 676.227 595.493 676.866 595.74 677.293C595.996 677.71 596.32 677.991 596.712 678.136C597.113 678.273 597.534 678.341 597.978 678.341C598.31 678.341 598.583 678.324 598.796 678.29C599.009 678.247 599.179 678.213 599.307 678.188L599.921 680.898C599.716 680.974 599.431 681.051 599.064 681.128C598.698 681.213 598.233 681.256 597.671 681.256C596.819 681.256 595.983 681.072 595.165 680.706C594.355 680.339 593.682 679.781 593.145 679.031C592.617 678.281 592.353 677.335 592.353 676.193V656.659Z" fill="white"/>
</svg>
