<svg width="720" height="767" viewBox="0 0 720 767" fill="none" xmlns="http://www.w3.org/2000/svg">
<rect y="687" width="720" height="80" rx="40" fill="black"/>
<path d="M313.75 718.364C313.597 717.068 312.975 716.062 311.884 715.347C310.793 714.631 309.455 714.273 307.87 714.273C306.711 714.273 305.696 714.46 304.827 714.835C303.966 715.21 303.293 715.726 302.807 716.382C302.33 717.038 302.091 717.784 302.091 718.619C302.091 719.318 302.257 719.919 302.59 720.422C302.931 720.916 303.365 721.33 303.894 721.662C304.422 721.986 304.976 722.254 305.556 722.467C306.135 722.672 306.668 722.838 307.154 722.966L309.813 723.682C310.495 723.861 311.253 724.108 312.088 724.423C312.932 724.739 313.738 725.169 314.505 725.714C315.28 726.251 315.919 726.942 316.422 727.786C316.925 728.629 317.176 729.665 317.176 730.892C317.176 732.307 316.806 733.585 316.064 734.727C315.331 735.869 314.257 736.777 312.843 737.45C311.436 738.124 309.728 738.46 307.716 738.46C305.841 738.46 304.218 738.158 302.846 737.553C301.482 736.947 300.408 736.104 299.624 735.021C298.848 733.939 298.409 732.682 298.307 731.25H301.58C301.665 732.239 301.998 733.057 302.577 733.705C303.165 734.344 303.907 734.821 304.801 735.136C305.705 735.443 306.676 735.597 307.716 735.597C308.926 735.597 310.013 735.401 310.976 735.009C311.939 734.608 312.702 734.054 313.265 733.347C313.827 732.631 314.108 731.795 314.108 730.841C314.108 729.972 313.865 729.264 313.38 728.719C312.894 728.173 312.255 727.73 311.462 727.389C310.669 727.048 309.813 726.75 308.892 726.494L305.671 725.574C303.625 724.986 302.006 724.146 300.813 723.055C299.62 721.964 299.023 720.537 299.023 718.773C299.023 717.307 299.419 716.028 300.212 714.938C301.013 713.838 302.087 712.986 303.434 712.381C304.789 711.767 306.301 711.46 307.972 711.46C309.659 711.46 311.159 711.763 312.472 712.368C313.784 712.964 314.824 713.783 315.591 714.822C316.367 715.862 316.776 717.043 316.819 718.364H313.75ZM321.98 738V718.364H324.997V738H321.98ZM323.514 715.091C322.926 715.091 322.419 714.891 321.993 714.49C321.575 714.089 321.366 713.608 321.366 713.045C321.366 712.483 321.575 712.001 321.993 711.601C322.419 711.2 322.926 711 323.514 711C324.102 711 324.605 711.2 325.023 711.601C325.449 712.001 325.662 712.483 325.662 713.045C325.662 713.608 325.449 714.089 325.023 714.49C324.605 714.891 324.102 715.091 323.514 715.091ZM338.449 745.773C336.992 745.773 335.739 745.585 334.691 745.21C333.642 744.844 332.769 744.358 332.07 743.753C331.38 743.156 330.83 742.517 330.421 741.835L332.824 740.148C333.097 740.506 333.442 740.915 333.86 741.375C334.277 741.844 334.848 742.249 335.573 742.589C336.306 742.939 337.265 743.114 338.449 743.114C340.034 743.114 341.343 742.73 342.374 741.963C343.405 741.196 343.921 739.994 343.921 738.358V734.369H343.665C343.444 734.727 343.128 735.17 342.719 735.699C342.319 736.219 341.739 736.683 340.98 737.092C340.23 737.493 339.216 737.693 337.938 737.693C336.353 737.693 334.929 737.318 333.668 736.568C332.415 735.818 331.422 734.727 330.689 733.295C329.965 731.864 329.603 730.125 329.603 728.08C329.603 726.068 329.956 724.317 330.664 722.825C331.371 721.325 332.355 720.166 333.617 719.348C334.878 718.521 336.336 718.108 337.989 718.108C339.267 718.108 340.282 718.321 341.032 718.747C341.79 719.165 342.37 719.642 342.77 720.179C343.179 720.707 343.495 721.142 343.716 721.483H344.023V718.364H346.938V738.562C346.938 740.25 346.554 741.622 345.787 742.679C345.029 743.744 344.006 744.524 342.719 745.018C341.441 745.521 340.017 745.773 338.449 745.773ZM338.347 734.983C339.557 734.983 340.58 734.706 341.415 734.152C342.25 733.598 342.885 732.801 343.32 731.761C343.755 730.722 343.972 729.477 343.972 728.028C343.972 726.614 343.759 725.365 343.333 724.283C342.907 723.2 342.276 722.352 341.441 721.739C340.605 721.125 339.574 720.818 338.347 720.818C337.069 720.818 336.003 721.142 335.151 721.79C334.307 722.437 333.672 723.307 333.246 724.398C332.828 725.489 332.62 726.699 332.62 728.028C332.62 729.392 332.833 730.598 333.259 731.646C333.694 732.686 334.333 733.504 335.176 734.101C336.029 734.689 337.086 734.983 338.347 734.983ZM355.478 726.188V738H352.461V718.364H355.375V721.432H355.631C356.091 720.435 356.79 719.634 357.728 719.028C358.665 718.415 359.875 718.108 361.358 718.108C362.688 718.108 363.851 718.381 364.848 718.926C365.846 719.463 366.621 720.281 367.175 721.381C367.729 722.472 368.006 723.852 368.006 725.523V738H364.989V725.727C364.989 724.185 364.588 722.983 363.787 722.122C362.986 721.253 361.887 720.818 360.489 720.818C359.526 720.818 358.665 721.027 357.907 721.445C357.157 721.862 356.564 722.472 356.13 723.273C355.695 724.074 355.478 725.045 355.478 726.188ZM396.019 729.972V718.364H399.036V738H396.019V734.676H395.815C395.354 735.673 394.638 736.521 393.667 737.22C392.695 737.911 391.468 738.256 389.985 738.256C388.758 738.256 387.667 737.987 386.712 737.45C385.758 736.905 385.008 736.087 384.462 734.996C383.917 733.896 383.644 732.511 383.644 730.841V718.364H386.661V730.636C386.661 732.068 387.062 733.21 387.863 734.062C388.673 734.915 389.704 735.341 390.957 735.341C391.707 735.341 392.469 735.149 393.245 734.766C394.029 734.382 394.685 733.794 395.214 733.001C395.751 732.209 396.019 731.199 396.019 729.972ZM404.562 745.364V718.364H407.477V721.483H407.835C408.056 721.142 408.363 720.707 408.755 720.179C409.156 719.642 409.727 719.165 410.468 718.747C411.218 718.321 412.233 718.108 413.511 718.108C415.164 718.108 416.622 718.521 417.883 719.348C419.145 720.175 420.129 721.347 420.836 722.864C421.544 724.381 421.897 726.17 421.897 728.233C421.897 730.312 421.544 732.115 420.836 733.641C420.129 735.158 419.149 736.334 417.896 737.169C416.643 737.996 415.199 738.409 413.562 738.409C412.301 738.409 411.291 738.2 410.532 737.783C409.774 737.357 409.19 736.875 408.781 736.338C408.372 735.793 408.056 735.341 407.835 734.983H407.579V745.364H404.562ZM407.528 728.182C407.528 729.665 407.745 730.973 408.18 732.107C408.615 733.232 409.25 734.114 410.085 734.753C410.92 735.384 411.943 735.699 413.153 735.699C414.414 735.699 415.467 735.366 416.311 734.702C417.163 734.028 417.802 733.125 418.228 731.991C418.663 730.849 418.88 729.58 418.88 728.182C418.88 726.801 418.667 725.557 418.241 724.449C417.824 723.332 417.189 722.45 416.336 721.803C415.493 721.146 414.431 720.818 413.153 720.818C411.926 720.818 410.895 721.129 410.059 721.751C409.224 722.365 408.593 723.226 408.167 724.334C407.741 725.433 407.528 726.716 407.528 728.182Z" fill="white"/>
<rect x="1" y="63" width="718" height="78" rx="15" fill="white" stroke="#CDCDCD" stroke-width="2"/>
<path d="M3.17045 35V8.81818H18.8693V11.6307H6.34091V20.4773H17.6932V23.2898H6.34091V35H3.17045ZM23.8903 35V15.3636H26.9073V35H23.8903ZM25.4244 12.0909C24.8363 12.0909 24.3292 11.8906 23.9031 11.4901C23.4854 11.0895 23.2766 10.608 23.2766 10.0455C23.2766 9.48295 23.4854 9.00142 23.9031 8.60085C24.3292 8.20028 24.8363 8 25.4244 8C26.0124 8 26.5153 8.20028 26.9329 8.60085C27.359 9.00142 27.5721 9.48295 27.5721 10.0455C27.5721 10.608 27.359 11.0895 26.9329 11.4901C26.5153 11.8906 26.0124 12.0909 25.4244 12.0909ZM32.4332 35V15.3636H35.348V18.3295H35.5526C35.9105 17.358 36.5582 16.5696 37.4957 15.9645C38.4332 15.3594 39.4901 15.0568 40.6662 15.0568C40.8878 15.0568 41.1648 15.0611 41.4972 15.0696C41.8295 15.0781 42.081 15.0909 42.2514 15.108V18.1761C42.1491 18.1506 41.9148 18.1122 41.5483 18.0611C41.1903 18.0014 40.8111 17.9716 40.4105 17.9716C39.456 17.9716 38.6037 18.1719 37.8537 18.5724C37.1122 18.9645 36.5241 19.5099 36.0895 20.2088C35.6634 20.8991 35.4503 21.6875 35.4503 22.5739V35H32.4332ZM59.7369 19.7614L57.0266 20.5284C56.8562 20.0767 56.6048 19.6378 56.2724 19.2116C55.9485 18.777 55.5053 18.419 54.9428 18.1378C54.3803 17.8565 53.6602 17.7159 52.7823 17.7159C51.5806 17.7159 50.5792 17.9929 49.7781 18.5469C48.9854 19.0923 48.5891 19.7869 48.5891 20.6307C48.5891 21.3807 48.8619 21.973 49.4073 22.4077C49.9528 22.8423 50.805 23.2045 51.9641 23.4943L54.8789 24.2102C56.6346 24.6364 57.9428 25.2884 58.8036 26.1662C59.6644 27.0355 60.0948 28.1562 60.0948 29.5284C60.0948 30.6534 59.771 31.6591 59.1232 32.5455C58.484 33.4318 57.5891 34.1307 56.4386 34.642C55.288 35.1534 53.9499 35.4091 52.4244 35.4091C50.4215 35.4091 48.7638 34.9744 47.4513 34.1051C46.1388 33.2358 45.3079 31.9659 44.9585 30.2955L47.8221 29.5795C48.0948 30.6364 48.6104 31.429 49.369 31.9574C50.136 32.4858 51.1374 32.75 52.3732 32.75C53.7795 32.75 54.896 32.4517 55.7227 31.8551C56.5579 31.25 56.9755 30.5256 56.9755 29.6818C56.9755 29 56.7369 28.429 56.2596 27.9688C55.7823 27.5 55.0494 27.1506 54.0607 26.9205L50.788 26.1534C48.9897 25.7273 47.6687 25.0668 46.8249 24.1719C45.9897 23.2685 45.5721 22.1392 45.5721 20.7841C45.5721 19.6761 45.8832 18.696 46.5053 17.8438C47.136 16.9915 47.9925 16.3224 49.0749 15.8366C50.1658 15.3509 51.4016 15.108 52.7823 15.108C54.7255 15.108 56.2511 15.5341 57.359 16.3864C58.4755 17.2386 59.2681 18.3636 59.7369 19.7614ZM73.1761 15.3636V17.9205H63V15.3636H73.1761ZM65.9659 10.6591H68.983V29.375C68.983 30.2273 69.1065 30.8665 69.3537 31.2926C69.6094 31.7102 69.9332 31.9915 70.3253 32.1364C70.7259 32.2727 71.1477 32.3409 71.5909 32.3409C71.9233 32.3409 72.196 32.3239 72.4091 32.2898C72.6222 32.2472 72.7926 32.2131 72.9205 32.1875L73.5341 34.8977C73.3295 34.9744 73.044 35.0511 72.6776 35.1278C72.3111 35.2131 71.8466 35.2557 71.2841 35.2557C70.4318 35.2557 69.5966 35.0724 68.7784 34.706C67.9688 34.3395 67.2955 33.7812 66.7585 33.0312C66.2301 32.2812 65.9659 31.3352 65.9659 30.1932V10.6591ZM109.01 8.81818V35H105.942L91.6747 14.4432H91.419V35H88.2486V8.81818H91.3168L105.635 29.4261H105.891V8.81818H109.01ZM120.723 35.4602C119.479 35.4602 118.35 35.2259 117.336 34.7571C116.321 34.2798 115.516 33.5938 114.919 32.6989C114.323 31.7955 114.025 30.7045 114.025 29.4261C114.025 28.3011 114.246 27.3892 114.689 26.6903C115.132 25.983 115.725 25.429 116.466 25.0284C117.208 24.6278 118.026 24.3295 118.921 24.1335C119.824 23.929 120.732 23.767 121.644 23.6477C122.837 23.4943 123.804 23.3793 124.546 23.3026C125.296 23.2173 125.841 23.0767 126.182 22.8807C126.532 22.6847 126.706 22.3437 126.706 21.858V21.7557C126.706 20.4943 126.361 19.5142 125.671 18.8153C124.989 18.1165 123.953 17.767 122.564 17.767C121.124 17.767 119.995 18.0824 119.176 18.7131C118.358 19.3437 117.783 20.017 117.451 20.733L114.587 19.7102C115.098 18.517 115.78 17.5881 116.632 16.9233C117.493 16.25 118.431 15.7812 119.445 15.517C120.468 15.2443 121.473 15.108 122.462 15.108C123.093 15.108 123.817 15.1847 124.635 15.3381C125.462 15.483 126.259 15.7855 127.026 16.2457C127.801 16.706 128.445 17.4006 128.956 18.3295C129.468 19.2585 129.723 20.5028 129.723 22.0625V35H126.706V32.3409H126.553C126.348 32.767 126.007 33.223 125.53 33.7088C125.053 34.1946 124.418 34.608 123.625 34.9489C122.833 35.2898 121.865 35.4602 120.723 35.4602ZM121.184 32.75C122.377 32.75 123.382 32.5156 124.201 32.0469C125.027 31.5781 125.65 30.973 126.067 30.2315C126.493 29.4901 126.706 28.7102 126.706 27.892V25.1307C126.578 25.2841 126.297 25.4247 125.863 25.5526C125.436 25.6719 124.942 25.7784 124.38 25.8722C123.826 25.9574 123.284 26.0341 122.756 26.1023C122.236 26.1619 121.814 26.2131 121.49 26.2557C120.706 26.358 119.973 26.5241 119.292 26.7543C118.618 26.9759 118.073 27.3125 117.655 27.7642C117.246 28.2074 117.042 28.8125 117.042 29.5795C117.042 30.6278 117.429 31.4205 118.205 31.9574C118.989 32.4858 119.982 32.75 121.184 32.75ZM135.23 35V15.3636H138.145V18.4318H138.401C138.81 17.3835 139.47 16.5696 140.382 15.9901C141.294 15.402 142.389 15.108 143.668 15.108C144.963 15.108 146.041 15.402 146.902 15.9901C147.771 16.5696 148.449 17.3835 148.935 18.4318H149.139C149.642 17.4176 150.396 16.6122 151.402 16.0156C152.408 15.4105 153.614 15.108 155.02 15.108C156.776 15.108 158.212 15.6577 159.328 16.7571C160.445 17.848 161.003 19.5483 161.003 21.858V35H157.986V21.858C157.986 20.4091 157.589 19.3736 156.797 18.7514C156.004 18.1293 155.071 17.8182 153.997 17.8182C152.616 17.8182 151.547 18.2358 150.788 19.071C150.03 19.8977 149.651 20.946 149.651 22.2159V35H146.582V21.5511C146.582 20.4347 146.22 19.5355 145.496 18.8537C144.771 18.1634 143.838 17.8182 142.696 17.8182C141.912 17.8182 141.179 18.027 140.497 18.4446C139.824 18.8622 139.278 19.4418 138.861 20.1832C138.452 20.9162 138.247 21.7642 138.247 22.7273V35H135.23ZM174.752 35.4091C172.86 35.4091 171.228 34.9915 169.856 34.1562C168.492 33.3125 167.44 32.1364 166.698 30.6278C165.965 29.1108 165.599 27.3466 165.599 25.3352C165.599 23.3239 165.965 21.5511 166.698 20.017C167.44 18.4744 168.471 17.2727 169.792 16.4119C171.121 15.5426 172.673 15.108 174.445 15.108C175.468 15.108 176.478 15.2784 177.475 15.6193C178.472 15.9602 179.38 16.5142 180.198 17.2812C181.016 18.0398 181.668 19.0455 182.154 20.2983C182.64 21.5511 182.883 23.0937 182.883 24.9261V26.2045H167.746V23.5966H179.815C179.815 22.4886 179.593 21.5 179.15 20.6307C178.715 19.7614 178.093 19.0753 177.283 18.5724C176.482 18.0696 175.536 17.8182 174.445 17.8182C173.244 17.8182 172.204 18.1165 171.326 18.7131C170.457 19.3011 169.788 20.0682 169.319 21.0142C168.85 21.9602 168.616 22.9744 168.616 24.0568V25.7955C168.616 27.2784 168.871 28.5355 169.383 29.5668C169.903 30.5895 170.623 31.3693 171.543 31.9062C172.464 32.4347 173.533 32.6989 174.752 32.6989C175.545 32.6989 176.261 32.5881 176.9 32.3665C177.548 32.1364 178.106 31.7955 178.575 31.3438C179.043 30.8835 179.406 30.3125 179.661 29.6307L182.576 30.4489C182.269 31.4375 181.754 32.3068 181.029 33.0568C180.305 33.7983 179.41 34.3778 178.344 34.7955C177.279 35.2045 176.082 35.4091 174.752 35.4091Z" fill="#606060"/>
<rect x="1" y="229" width="718" height="78" rx="15" fill="white" stroke="#CDCDCD" stroke-width="2"/>
<path d="M3.17045 201V174.818H6.34091V198.188H18.5114V201H3.17045ZM28.7898 201.46C27.5455 201.46 26.4162 201.226 25.402 200.757C24.3878 200.28 23.5824 199.594 22.9858 198.699C22.3892 197.795 22.0909 196.705 22.0909 195.426C22.0909 194.301 22.3125 193.389 22.7557 192.69C23.1989 191.983 23.7912 191.429 24.5327 191.028C25.2741 190.628 26.0923 190.33 26.9872 190.134C27.8906 189.929 28.7983 189.767 29.7102 189.648C30.9034 189.494 31.8707 189.379 32.6122 189.303C33.3622 189.217 33.9077 189.077 34.2486 188.881C34.598 188.685 34.7727 188.344 34.7727 187.858V187.756C34.7727 186.494 34.4276 185.514 33.7372 184.815C33.0554 184.116 32.0199 183.767 30.6307 183.767C29.1903 183.767 28.0611 184.082 27.2429 184.713C26.4247 185.344 25.8494 186.017 25.517 186.733L22.6534 185.71C23.1648 184.517 23.8466 183.588 24.6989 182.923C25.5597 182.25 26.4972 181.781 27.5114 181.517C28.5341 181.244 29.5398 181.108 30.5284 181.108C31.1591 181.108 31.8835 181.185 32.7017 181.338C33.5284 181.483 34.3253 181.786 35.0923 182.246C35.8679 182.706 36.5114 183.401 37.0227 184.33C37.5341 185.259 37.7898 186.503 37.7898 188.062V201H34.7727V198.341H34.6193C34.4148 198.767 34.0739 199.223 33.5966 199.709C33.1193 200.195 32.4844 200.608 31.6918 200.949C30.8991 201.29 29.9318 201.46 28.7898 201.46ZM29.25 198.75C30.4432 198.75 31.4489 198.516 32.267 198.047C33.0938 197.578 33.7159 196.973 34.1335 196.232C34.5597 195.49 34.7727 194.71 34.7727 193.892V191.131C34.6449 191.284 34.3636 191.425 33.929 191.553C33.5028 191.672 33.0085 191.778 32.446 191.872C31.892 191.957 31.3509 192.034 30.8224 192.102C30.3026 192.162 29.8807 192.213 29.5568 192.256C28.7727 192.358 28.0398 192.524 27.358 192.754C26.6847 192.976 26.1392 193.312 25.7216 193.764C25.3125 194.207 25.108 194.812 25.108 195.58C25.108 196.628 25.4957 197.42 26.2713 197.957C27.0554 198.486 28.0483 198.75 29.25 198.75ZM57.2056 185.761L54.4954 186.528C54.3249 186.077 54.0735 185.638 53.7411 185.212C53.4173 184.777 52.9741 184.419 52.4116 184.138C51.8491 183.857 51.1289 183.716 50.2511 183.716C49.0494 183.716 48.0479 183.993 47.2468 184.547C46.4542 185.092 46.0579 185.787 46.0579 186.631C46.0579 187.381 46.3306 187.973 46.8761 188.408C47.4215 188.842 48.2738 189.205 49.4329 189.494L52.3477 190.21C54.1033 190.636 55.4116 191.288 56.2724 192.166C57.1332 193.036 57.5636 194.156 57.5636 195.528C57.5636 196.653 57.2397 197.659 56.592 198.545C55.9528 199.432 55.0579 200.131 53.9073 200.642C52.7567 201.153 51.4187 201.409 49.8931 201.409C47.8903 201.409 46.2326 200.974 44.9201 200.105C43.6076 199.236 42.7766 197.966 42.4272 196.295L45.2908 195.58C45.5636 196.636 46.0792 197.429 46.8377 197.957C47.6048 198.486 48.6062 198.75 49.842 198.75C51.2482 198.75 52.3647 198.452 53.1914 197.855C54.0266 197.25 54.4442 196.526 54.4442 195.682C54.4442 195 54.2056 194.429 53.7283 193.969C53.2511 193.5 52.5181 193.151 51.5295 192.92L48.2567 192.153C46.4585 191.727 45.1374 191.067 44.2937 190.172C43.4585 189.268 43.0408 188.139 43.0408 186.784C43.0408 185.676 43.3519 184.696 43.9741 183.844C44.6048 182.991 45.4613 182.322 46.5437 181.837C47.6346 181.351 48.8704 181.108 50.2511 181.108C52.1942 181.108 53.7198 181.534 54.8278 182.386C55.9442 183.239 56.7369 184.364 57.2056 185.761ZM70.6449 181.364V183.92H60.4688V181.364H70.6449ZM63.4347 176.659H66.4517V195.375C66.4517 196.227 66.5753 196.866 66.8224 197.293C67.0781 197.71 67.402 197.991 67.794 198.136C68.1946 198.273 68.6165 198.341 69.0597 198.341C69.392 198.341 69.6648 198.324 69.8778 198.29C70.0909 198.247 70.2614 198.213 70.3892 198.188L71.0028 200.898C70.7983 200.974 70.5128 201.051 70.1463 201.128C69.7798 201.213 69.3153 201.256 68.7528 201.256C67.9006 201.256 67.0653 201.072 66.2472 200.706C65.4375 200.339 64.7642 199.781 64.2273 199.031C63.6989 198.281 63.4347 197.335 63.4347 196.193V176.659ZM106.479 174.818V201H103.411L89.1435 180.443H88.8878V201H85.7173V174.818H88.7855L103.104 195.426H103.359V174.818H106.479ZM118.192 201.46C116.948 201.46 115.819 201.226 114.804 200.757C113.79 200.28 112.985 199.594 112.388 198.699C111.792 197.795 111.493 196.705 111.493 195.426C111.493 194.301 111.715 193.389 112.158 192.69C112.601 191.983 113.194 191.429 113.935 191.028C114.676 190.628 115.495 190.33 116.39 190.134C117.293 189.929 118.201 189.767 119.113 189.648C120.306 189.494 121.273 189.379 122.015 189.303C122.765 189.217 123.31 189.077 123.651 188.881C124 188.685 124.175 188.344 124.175 187.858V187.756C124.175 186.494 123.83 185.514 123.14 184.815C122.458 184.116 121.422 183.767 120.033 183.767C118.593 183.767 117.463 184.082 116.645 184.713C115.827 185.344 115.252 186.017 114.919 186.733L112.056 185.71C112.567 184.517 113.249 183.588 114.101 182.923C114.962 182.25 115.9 181.781 116.914 181.517C117.936 181.244 118.942 181.108 119.931 181.108C120.561 181.108 121.286 181.185 122.104 181.338C122.931 181.483 123.728 181.786 124.495 182.246C125.27 182.706 125.914 183.401 126.425 184.33C126.936 185.259 127.192 186.503 127.192 188.062V201H124.175V198.341H124.022C123.817 198.767 123.476 199.223 122.999 199.709C122.522 200.195 121.887 200.608 121.094 200.949C120.301 201.29 119.334 201.46 118.192 201.46ZM118.652 198.75C119.846 198.75 120.851 198.516 121.669 198.047C122.496 197.578 123.118 196.973 123.536 196.232C123.962 195.49 124.175 194.71 124.175 193.892V191.131C124.047 191.284 123.766 191.425 123.331 191.553C122.905 191.672 122.411 191.778 121.848 191.872C121.294 191.957 120.753 192.034 120.225 192.102C119.705 192.162 119.283 192.213 118.959 192.256C118.175 192.358 117.442 192.524 116.76 192.754C116.087 192.976 115.542 193.312 115.124 193.764C114.715 194.207 114.51 194.812 114.51 195.58C114.51 196.628 114.898 197.42 115.674 197.957C116.458 198.486 117.451 198.75 118.652 198.75ZM132.699 201V181.364H135.614V184.432H135.869C136.278 183.384 136.939 182.57 137.851 181.99C138.763 181.402 139.858 181.108 141.136 181.108C142.432 181.108 143.51 181.402 144.371 181.99C145.24 182.57 145.918 183.384 146.403 184.432H146.608C147.111 183.418 147.865 182.612 148.871 182.016C149.876 181.411 151.082 181.108 152.489 181.108C154.244 181.108 155.68 181.658 156.797 182.757C157.913 183.848 158.472 185.548 158.472 187.858V201H155.455V187.858C155.455 186.409 155.058 185.374 154.266 184.751C153.473 184.129 152.54 183.818 151.466 183.818C150.085 183.818 149.016 184.236 148.257 185.071C147.499 185.898 147.119 186.946 147.119 188.216V201H144.051V187.551C144.051 186.435 143.689 185.536 142.964 184.854C142.24 184.163 141.307 183.818 140.165 183.818C139.381 183.818 138.648 184.027 137.966 184.445C137.293 184.862 136.747 185.442 136.33 186.183C135.92 186.916 135.716 187.764 135.716 188.727V201H132.699ZM172.221 201.409C170.329 201.409 168.697 200.991 167.325 200.156C165.961 199.312 164.908 198.136 164.167 196.628C163.434 195.111 163.067 193.347 163.067 191.335C163.067 189.324 163.434 187.551 164.167 186.017C164.908 184.474 165.94 183.273 167.261 182.412C168.59 181.543 170.141 181.108 171.914 181.108C172.937 181.108 173.947 181.278 174.944 181.619C175.941 181.96 176.849 182.514 177.667 183.281C178.485 184.04 179.137 185.045 179.623 186.298C180.109 187.551 180.352 189.094 180.352 190.926V192.205H165.215V189.597H177.283C177.283 188.489 177.062 187.5 176.619 186.631C176.184 185.761 175.562 185.075 174.752 184.572C173.951 184.07 173.005 183.818 171.914 183.818C170.712 183.818 169.673 184.116 168.795 184.713C167.925 185.301 167.256 186.068 166.788 187.014C166.319 187.96 166.085 188.974 166.085 190.057V191.795C166.085 193.278 166.34 194.536 166.852 195.567C167.371 196.589 168.092 197.369 169.012 197.906C169.933 198.435 171.002 198.699 172.221 198.699C173.013 198.699 173.729 198.588 174.369 198.366C175.016 198.136 175.575 197.795 176.043 197.344C176.512 196.884 176.874 196.312 177.13 195.631L180.045 196.449C179.738 197.438 179.222 198.307 178.498 199.057C177.773 199.798 176.879 200.378 175.813 200.795C174.748 201.205 173.55 201.409 172.221 201.409Z" fill="#606060"/>
<rect x="1" y="395" width="718" height="78" rx="15" fill="white" stroke="#CDCDCD" stroke-width="2"/>
<path d="M3.17045 367V340.818H18.9716V343.631H6.34091V352.477H18.1534V355.29H6.34091V364.188H19.1761V367H3.17045ZM24.277 367V347.364H27.1918V350.432H27.4474C27.8565 349.384 28.517 348.57 29.429 347.99C30.3409 347.402 31.4361 347.108 32.7145 347.108C34.0099 347.108 35.0881 347.402 35.9489 347.99C36.8182 348.57 37.4957 349.384 37.9815 350.432H38.1861C38.6889 349.418 39.4432 348.612 40.4489 348.016C41.4545 347.411 42.6605 347.108 44.0668 347.108C45.8224 347.108 47.2585 347.658 48.375 348.757C49.4915 349.848 50.0497 351.548 50.0497 353.858V367H47.0327V353.858C47.0327 352.409 46.6364 351.374 45.8438 350.751C45.0511 350.129 44.1179 349.818 43.044 349.818C41.6634 349.818 40.5938 350.236 39.8352 351.071C39.0767 351.898 38.6974 352.946 38.6974 354.216V367H35.6293V353.551C35.6293 352.435 35.267 351.536 34.5426 350.854C33.8182 350.163 32.8849 349.818 31.7429 349.818C30.9588 349.818 30.2259 350.027 29.544 350.445C28.8707 350.862 28.3253 351.442 27.9077 352.183C27.4986 352.916 27.294 353.764 27.294 354.727V367H24.277ZM61.3445 367.46C60.1001 367.46 58.9709 367.226 57.9567 366.757C56.9425 366.28 56.1371 365.594 55.5405 364.699C54.9439 363.795 54.6456 362.705 54.6456 361.426C54.6456 360.301 54.8672 359.389 55.3104 358.69C55.7536 357.983 56.3459 357.429 57.0874 357.028C57.8288 356.628 58.647 356.33 59.5419 356.134C60.4453 355.929 61.353 355.767 62.2649 355.648C63.4581 355.494 64.4254 355.379 65.1669 355.303C65.9169 355.217 66.4624 355.077 66.8033 354.881C67.1527 354.685 67.3274 354.344 67.3274 353.858V353.756C67.3274 352.494 66.9822 351.514 66.2919 350.815C65.6101 350.116 64.5746 349.767 63.1854 349.767C61.745 349.767 60.6158 350.082 59.7976 350.713C58.9794 351.344 58.4041 352.017 58.0717 352.733L55.2081 351.71C55.7195 350.517 56.4013 349.588 57.2536 348.923C58.1143 348.25 59.0518 347.781 60.0661 347.517C61.0888 347.244 62.0945 347.108 63.0831 347.108C63.7138 347.108 64.4382 347.185 65.2564 347.338C66.0831 347.483 66.88 347.786 67.647 348.246C68.4226 348.706 69.0661 349.401 69.5774 350.33C70.0888 351.259 70.3445 352.503 70.3445 354.062V367H67.3274V364.341H67.174C66.9695 364.767 66.6286 365.223 66.1513 365.709C65.674 366.195 65.0391 366.608 64.2464 366.949C63.4538 367.29 62.4865 367.46 61.3445 367.46ZM61.8047 364.75C62.9979 364.75 64.0036 364.516 64.8217 364.047C65.6484 363.578 66.2706 362.973 66.6882 362.232C67.1143 361.49 67.3274 360.71 67.3274 359.892V357.131C67.1996 357.284 66.9183 357.425 66.4837 357.553C66.0575 357.672 65.5632 357.778 65.0007 357.872C64.4467 357.957 63.9055 358.034 63.3771 358.102C62.8572 358.162 62.4354 358.213 62.1115 358.256C61.3274 358.358 60.5945 358.524 59.9126 358.754C59.2393 358.976 58.6939 359.312 58.2763 359.764C57.8672 360.207 57.6626 360.812 57.6626 361.58C57.6626 362.628 58.0504 363.42 58.826 363.957C59.6101 364.486 60.603 364.75 61.8047 364.75ZM75.8512 367V347.364H78.8683V367H75.8512ZM77.3853 344.091C76.7972 344.091 76.2901 343.891 75.864 343.49C75.4464 343.089 75.2376 342.608 75.2376 342.045C75.2376 341.483 75.4464 341.001 75.864 340.601C76.2901 340.2 76.7972 340 77.3853 340C77.9734 340 78.4762 340.2 78.8938 340.601C79.32 341.001 79.533 341.483 79.533 342.045C79.533 342.608 79.32 343.089 78.8938 343.49C78.4762 343.891 77.9734 344.091 77.3853 344.091ZM87.4112 340.818V367H84.3942V340.818H87.4112Z" fill="#606060"/>
<rect x="1" y="561" width="718" height="78" rx="15" fill="white" stroke="#CDCDCD" stroke-width="2"/>
<path d="M3.17045 533V506.818H12.017C14.071 506.818 15.75 507.189 17.054 507.93C18.3665 508.663 19.3381 509.656 19.9688 510.909C20.5994 512.162 20.9148 513.56 20.9148 515.102C20.9148 516.645 20.5994 518.047 19.9688 519.308C19.3466 520.57 18.3835 521.575 17.0795 522.325C15.7756 523.067 14.1051 523.438 12.0682 523.438H5.72727V520.625H11.9659C13.3722 520.625 14.5014 520.382 15.3537 519.896C16.206 519.411 16.8239 518.754 17.2074 517.928C17.5994 517.092 17.7955 516.151 17.7955 515.102C17.7955 514.054 17.5994 513.116 17.2074 512.29C16.8239 511.463 16.2017 510.815 15.3409 510.347C14.4801 509.869 13.3381 509.631 11.9148 509.631H6.34091V533H3.17045ZM31.3913 533.46C30.147 533.46 29.0178 533.226 28.0036 532.757C26.9893 532.28 26.1839 531.594 25.5874 530.699C24.9908 529.795 24.6925 528.705 24.6925 527.426C24.6925 526.301 24.9141 525.389 25.3572 524.69C25.8004 523.983 26.3928 523.429 27.1342 523.028C27.8757 522.628 28.6939 522.33 29.5888 522.134C30.4922 521.929 31.3999 521.767 32.3118 521.648C33.505 521.494 34.4723 521.379 35.2138 521.303C35.9638 521.217 36.5092 521.077 36.8501 520.881C37.1996 520.685 37.3743 520.344 37.3743 519.858V519.756C37.3743 518.494 37.0291 517.514 36.3388 516.815C35.657 516.116 34.6214 515.767 33.2322 515.767C31.7919 515.767 30.6626 516.082 29.8445 516.713C29.0263 517.344 28.451 518.017 28.1186 518.733L25.255 517.71C25.7663 516.517 26.4482 515.588 27.3004 514.923C28.1612 514.25 29.0987 513.781 30.1129 513.517C31.1357 513.244 32.1413 513.108 33.13 513.108C33.7607 513.108 34.4851 513.185 35.3033 513.338C36.13 513.483 36.9268 513.786 37.6939 514.246C38.4695 514.706 39.1129 515.401 39.6243 516.33C40.1357 517.259 40.3913 518.503 40.3913 520.062V533H37.3743V530.341H37.2209C37.0163 530.767 36.6754 531.223 36.1982 531.709C35.7209 532.195 35.0859 532.608 34.2933 532.949C33.5007 533.29 32.5334 533.46 31.3913 533.46ZM31.8516 530.75C33.0447 530.75 34.0504 530.516 34.8686 530.047C35.6953 529.578 36.3175 528.973 36.7351 528.232C37.1612 527.49 37.3743 526.71 37.3743 525.892V523.131C37.2464 523.284 36.9652 523.425 36.5305 523.553C36.1044 523.672 35.6101 523.778 35.0476 523.872C34.4936 523.957 33.9524 524.034 33.424 524.102C32.9041 524.162 32.4822 524.213 32.1584 524.256C31.3743 524.358 30.6413 524.524 29.9595 524.754C29.2862 524.976 28.7408 525.312 28.3232 525.764C27.9141 526.207 27.7095 526.812 27.7095 527.58C27.7095 528.628 28.0973 529.42 28.8729 529.957C29.657 530.486 30.6499 530.75 31.8516 530.75ZM59.8072 517.761L57.0969 518.528C56.9265 518.077 56.6751 517.638 56.3427 517.212C56.0188 516.777 55.5756 516.419 55.0131 516.138C54.4506 515.857 53.7305 515.716 52.8526 515.716C51.6509 515.716 50.6495 515.993 49.8484 516.547C49.0558 517.092 48.6594 517.787 48.6594 518.631C48.6594 519.381 48.9322 519.973 49.4776 520.408C50.0231 520.842 50.8754 521.205 52.0344 521.494L54.9492 522.21C56.7049 522.636 58.0131 523.288 58.8739 524.166C59.7347 525.036 60.1651 526.156 60.1651 527.528C60.1651 528.653 59.8413 529.659 59.1935 530.545C58.5543 531.432 57.6594 532.131 56.5089 532.642C55.3583 533.153 54.0202 533.409 52.4947 533.409C50.4918 533.409 48.8342 532.974 47.5217 532.105C46.2092 531.236 45.3782 529.966 45.0288 528.295L47.8924 527.58C48.1651 528.636 48.6808 529.429 49.4393 529.957C50.2063 530.486 51.2077 530.75 52.4435 530.75C53.8498 530.75 54.9663 530.452 55.793 529.855C56.6282 529.25 57.0458 528.526 57.0458 527.682C57.0458 527 56.8072 526.429 56.3299 525.969C55.8526 525.5 55.1197 525.151 54.131 524.92L50.8583 524.153C49.06 523.727 47.739 523.067 46.8952 522.172C46.06 521.268 45.6424 520.139 45.6424 518.784C45.6424 517.676 45.9535 516.696 46.5756 515.844C47.2063 514.991 48.0629 514.322 49.1452 513.837C50.2362 513.351 51.4719 513.108 52.8526 513.108C54.7958 513.108 56.3214 513.534 57.4293 514.386C58.5458 515.239 59.3384 516.364 59.8072 517.761ZM78.6158 517.761L75.9055 518.528C75.7351 518.077 75.4837 517.638 75.1513 517.212C74.8274 516.777 74.3842 516.419 73.8217 516.138C73.2592 515.857 72.5391 515.716 71.6612 515.716C70.4595 515.716 69.4581 515.993 68.657 516.547C67.8643 517.092 67.468 517.787 67.468 518.631C67.468 519.381 67.7408 519.973 68.2862 520.408C68.8317 520.842 69.6839 521.205 70.843 521.494L73.7578 522.21C75.5135 522.636 76.8217 523.288 77.6825 524.166C78.5433 525.036 78.9737 526.156 78.9737 527.528C78.9737 528.653 78.6499 529.659 78.0021 530.545C77.3629 531.432 76.468 532.131 75.3175 532.642C74.1669 533.153 72.8288 533.409 71.3033 533.409C69.3004 533.409 67.6428 532.974 66.3303 532.105C65.0178 531.236 64.1868 529.966 63.8374 528.295L66.701 527.58C66.9737 528.636 67.4893 529.429 68.2479 529.957C69.0149 530.486 70.0163 530.75 71.2521 530.75C72.6584 530.75 73.7749 530.452 74.6016 529.855C75.4368 529.25 75.8544 528.526 75.8544 527.682C75.8544 527 75.6158 526.429 75.1385 525.969C74.6612 525.5 73.9283 525.151 72.9396 524.92L69.6669 524.153C67.8686 523.727 66.5476 523.067 65.7038 522.172C64.8686 521.268 64.451 520.139 64.451 518.784C64.451 517.676 64.7621 516.696 65.3842 515.844C66.0149 514.991 66.8714 514.322 67.9538 513.837C69.0447 513.351 70.2805 513.108 71.6612 513.108C73.6044 513.108 75.13 513.534 76.2379 514.386C77.3544 515.239 78.147 516.364 78.6158 517.761ZM87.9641 533L81.9812 513.364H85.1516L89.396 528.398H89.6005L93.7937 513.364H97.0153L101.157 528.347H101.362L105.606 513.364H108.777L102.794 533H99.8278L95.5323 517.915H95.2255L90.93 533H87.9641ZM120.075 533.409C118.302 533.409 116.746 532.987 115.408 532.143C114.079 531.3 113.039 530.119 112.289 528.602C111.548 527.085 111.177 525.312 111.177 523.284C111.177 521.239 111.548 519.453 112.289 517.928C113.039 516.402 114.079 515.217 115.408 514.374C116.746 513.53 118.302 513.108 120.075 513.108C121.847 513.108 123.398 513.53 124.728 514.374C126.066 515.217 127.106 516.402 127.847 517.928C128.597 519.453 128.972 521.239 128.972 523.284C128.972 525.312 128.597 527.085 127.847 528.602C127.106 530.119 126.066 531.3 124.728 532.143C123.398 532.987 121.847 533.409 120.075 533.409ZM120.075 530.699C121.421 530.699 122.529 530.354 123.398 529.663C124.268 528.973 124.911 528.065 125.329 526.94C125.746 525.815 125.955 524.597 125.955 523.284C125.955 521.972 125.746 520.749 125.329 519.615C124.911 518.482 124.268 517.565 123.398 516.866C122.529 516.168 121.421 515.818 120.075 515.818C118.728 515.818 117.62 516.168 116.751 516.866C115.881 517.565 115.238 518.482 114.82 519.615C114.403 520.749 114.194 521.972 114.194 523.284C114.194 524.597 114.403 525.815 114.82 526.94C115.238 528.065 115.881 528.973 116.751 529.663C117.62 530.354 118.728 530.699 120.075 530.699ZM133.578 533V513.364H136.493V516.33H136.697C137.055 515.358 137.703 514.57 138.64 513.964C139.578 513.359 140.635 513.057 141.811 513.057C142.032 513.057 142.309 513.061 142.642 513.07C142.974 513.078 143.225 513.091 143.396 513.108V516.176C143.294 516.151 143.059 516.112 142.693 516.061C142.335 516.001 141.956 515.972 141.555 515.972C140.6 515.972 139.748 516.172 138.998 516.572C138.257 516.964 137.669 517.51 137.234 518.209C136.808 518.899 136.595 519.687 136.595 520.574V533H133.578ZM153.789 533.409C152.153 533.409 150.708 532.996 149.456 532.169C148.203 531.334 147.223 530.158 146.515 528.641C145.808 527.115 145.454 525.312 145.454 523.233C145.454 521.17 145.808 519.381 146.515 517.864C147.223 516.347 148.207 515.175 149.468 514.348C150.73 513.521 152.187 513.108 153.841 513.108C155.119 513.108 156.129 513.321 156.87 513.747C157.62 514.165 158.191 514.642 158.583 515.179C158.984 515.707 159.295 516.142 159.517 516.483H159.772V506.818H162.789V533H159.875V529.983H159.517C159.295 530.341 158.98 530.793 158.571 531.338C158.162 531.875 157.578 532.357 156.819 532.783C156.061 533.2 155.051 533.409 153.789 533.409ZM154.199 530.699C155.409 530.699 156.431 530.384 157.267 529.753C158.102 529.114 158.737 528.232 159.172 527.107C159.606 525.973 159.824 524.665 159.824 523.182C159.824 521.716 159.61 520.433 159.184 519.334C158.758 518.226 158.127 517.365 157.292 516.751C156.457 516.129 155.426 515.818 154.199 515.818C152.92 515.818 151.855 516.146 151.002 516.803C150.159 517.45 149.524 518.332 149.098 519.449C148.68 520.557 148.471 521.801 148.471 523.182C148.471 524.58 148.684 525.849 149.11 526.991C149.545 528.125 150.184 529.028 151.028 529.702C151.88 530.366 152.937 530.699 154.199 530.699Z" fill="#606060"/>
</svg>
